<?xml version="1.0" encoding="utf-8"?>
<!-- Generator: Adobe Illustrator 25.1.0, SVG Export Plug-In . SVG Version: 6.00 Build 0)  -->
<svg version="1.1" id="Layer_1" xmlns="http://www.w3.org/2000/svg" xmlns:xlink="http://www.w3.org/1999/xlink" x="0px" y="0px"
	 viewBox="0 0 315.7 68.2" style="enable-background:new 0 0 315.7 68.2;" xml:space="preserve">
<style type="text/css">
	.st0{fill:#45BB8A;}
	.st1{fill:#FFFFFF;}
</style>
<path class="st0" d="M57.2,68.2H11c-6.1,0-11-5-11-11V11C0,4.9,4.9,0,11,0h46.2c6,0,11,4.9,11,11v46.2
	C68.2,63.3,63.3,68.2,57.2,68.2z"/>
<g>
	<path class="st1" d="M102.2,21.9v29.5c0,1.1-0.6,1.7-1.7,1.7h-2.8c-1.1,0-1.7-0.6-1.7-1.7V21.9h-5c-1.1,0-1.7-0.7-1.7-1.7v-1.4
		c0-1.1,0.6-1.7,1.7-1.7h16.4c1.1,0,1.7,0.6,1.7,1.7v1.4c0,1.1-0.6,1.7-1.7,1.7H102.2z"/>
	<path class="st1" d="M122.4,51.6l-0.7-5.6h-6.3l-0.7,5.6c-0.1,1.1-0.9,1.5-1.7,1.5h-2.7c-1.2,0-1.8-0.9-1.6-2.1l4.9-32.4
		c0.1-1.2,0.8-1.6,1.8-1.6h6.5c1,0,1.6,0.4,1.7,1.6l4.9,32.4c0.2,1.2-0.4,2.1-1.6,2.1h-2.7C123.3,53.2,122.5,52.8,122.4,51.6z
		 M115.9,41.2h5.1l-1-7.7l-1.3-12.1h-0.4l-1.3,12.1L115.9,41.2z"/>
	<path class="st1" d="M138.8,48.3h7.5c1.1,0,1.7,0.6,1.7,1.7v1.4c0,1.1-0.6,1.7-1.7,1.7h-12.1c-1.1,0-1.7-0.6-1.7-1.7V18.7
		c0-1.1,0.6-1.7,1.7-1.7h2.8c1.1,0,1.7,0.6,1.7,1.7V48.3z"/>
	<path class="st1" d="M158.2,48.3h7.5c1.1,0,1.7,0.6,1.7,1.7v1.4c0,1.1-0.6,1.7-1.7,1.7h-12.1c-1.1,0-1.7-0.6-1.7-1.7V18.7
		c0-1.1,0.6-1.7,1.7-1.7h2.8c1.1,0,1.7,0.6,1.7,1.7V48.3z"/>
	<path class="st1" d="M170.2,17c0.7,0,1.4,0.3,1.7,1.2l2.1,8.1l1.4,7.2h0.4l1.4-7.2l2.2-8.1c0.2-0.9,1-1.2,1.7-1.2h2.7
		c1.5,0,1.9,1.2,1.5,2.4l-6.6,20.8v11.2c0,1.1-0.6,1.7-1.7,1.7h-2.9c-1.1,0-1.7-0.6-1.7-1.7V40.2l-6.6-20.8
		c-0.3-1.2,0.1-2.4,1.6-2.4H170.2z"/>
	<path class="st1" d="M220.4,29.8c0,1.1-0.6,1.7-1.7,1.7h-2.8c-1.1,0-1.7-0.6-1.7-1.7v-5.3c0-1.7-0.8-2.8-2.8-2.8s-2.8,1.1-2.8,2.8
		v21.2c0,1.7,0.7,2.8,2.8,2.8s2.8-1.1,2.8-2.8v-5.3c0-1.1,0.6-1.7,1.7-1.7h2.8c1.1,0,1.7,0.6,1.7,1.7v5.3c0,5.2-2.9,7.7-9.2,7.7
		c-6.3,0-9.1-2.5-9.1-7.7V24.5c0-5.2,2.8-7.7,9.1-7.7c6.3,0,9.2,2.5,9.2,7.7V29.8z"/>
	<path class="st1" d="M244.2,24.5v21.2c0,5.2-2.9,7.7-9.2,7.7c-6.3,0-9.1-2.5-9.1-7.7V24.5c0-5.2,2.8-7.7,9.1-7.7
		C241.3,16.8,244.2,19.3,244.2,24.5z M232.2,24.5v21.2c0,1.7,0.7,2.8,2.8,2.8s2.8-1.1,2.8-2.8V24.5c0-1.7-0.8-2.8-2.8-2.8
		S232.2,22.8,232.2,24.5z"/>
	<path class="st1" d="M249.7,18.7c0-1.1,0.6-1.7,1.7-1.7h2.8c1.1,0,1.7,0.6,1.7,1.7v27c0,1.7,0.7,2.8,2.8,2.8s2.8-1.1,2.8-2.8v-27
		c0-1.1,0.6-1.7,1.7-1.7h2.8c1.1,0,1.7,0.6,1.7,1.7v27c0,5.2-2.9,7.7-9.2,7.7c-6.3,0-9.1-2.5-9.1-7.7V18.7z"/>
	<path class="st1" d="M286.3,18.7c0-1.1,0.6-1.7,1.7-1.7h2.5c1.1,0,1.7,0.6,1.7,1.7v32.7c0,1.1-0.6,1.7-1.7,1.7h-3.1
		c-1,0-1.4-0.5-1.7-1.3l-4.1-13.4l-2.2-8.2l-0.5,0l0.6,8.5v12.7c0,1.1-0.6,1.7-1.7,1.7h-2.5c-1.1,0-1.7-0.6-1.7-1.7V18.7
		c0-1.1,0.6-1.7,1.7-1.7h3.1c1,0,1.5,0.5,1.7,1.3l4.1,13.4l2.2,8.2l0.5,0l-0.6-8.5V18.7z"/>
	<path class="st1" d="M308.9,21.9v29.5c0,1.1-0.6,1.7-1.7,1.7h-2.8c-1.1,0-1.7-0.6-1.7-1.7V21.9h-5c-1.1,0-1.7-0.7-1.7-1.7v-1.4
		c0-1.1,0.6-1.7,1.7-1.7h16.4c1.1,0,1.7,0.6,1.7,1.7v1.4c0,1.1-0.7,1.7-1.7,1.7H308.9z"/>
</g>
<path class="st1" d="M57.9,40.9l-5.9-2.4V20.4c0-1.5-1.2-2.6-2.6-2.6c-1.5,0-2.6,1.2-2.6,2.6v15.9l-4.9-2V20.4
	c0-1.5-1.2-2.6-2.6-2.6s-2.6,1.2-2.6,2.6v11.7l-4.9-2v-9.7c0-1.5-1.2-2.6-2.6-2.6s-2.6,1.2-2.6,2.6V28l-4.9-2v-5.5
	c0-1.5-1.2-2.6-2.6-2.6s-2.6,1.2-2.6,2.6v3.4l-3.9-1.6c-1.3-0.6-2.9,0.1-3.5,1.4c-0.6,1.3,0.1,2.9,1.4,3.5l5.9,2.4v17.8
	c0,1.5,1.2,2.6,2.6,2.6s2.6-1.2,2.6-2.6V31.7l4.9,2v13.7c0,1.5,1.2,2.6,2.6,2.6s2.6-1.2,2.6-2.6V35.9l4.9,2v9.5
	c0,1.5,1.2,2.6,2.6,2.6s2.6-1.2,2.6-2.6V40l4.9,2v5.3c0,1.5,1.2,2.6,2.6,2.6c1.5,0,2.6-1.2,2.6-2.6v-3.1l3.9,1.6
	c1.3,0.6,2.9-0.1,3.5-1.4C59.9,43,59.3,41.5,57.9,40.9z"/>
</svg>
